<?xml version="1.0" encoding="UTF-8"?>
<svg width="256px" height="256px" viewBox="0 0 256 256" version="1.1" xmlns="http://www.w3.org/2000/svg">
    <defs>
        <linearGradient x1="0%" y1="0%" x2="100%" y2="100%" id="gradient">
            <stop stop-color="#06b6d4" offset="0%"></stop>
            <stop stop-color="#3b82f6" offset="100%"></stop>
        </linearGradient>
    </defs>
    <g stroke="none" stroke-width="1" fill="none" fill-rule="evenodd">
        <rect fill="#1a1e2e" x="0" y="0" width="256" height="256" rx="28"></rect>
        <path d="M213.333,85.333 L213.333,170.667 C213.333,182.912 203.578,192.667 191.333,192.667 L64.6667,192.667 C52.4213,192.667 42.6667,182.912 42.6667,170.667 L42.6667,85.333 C42.6667,73.088 52.4213,63.3333 64.6667,63.3333 L191.333,63.3333 C203.578,63.3333 213.333,73.088 213.333,85.333 Z M191.333,106.965 L138.347,138.965 C133.44,142.027 127.227,142.027 122.32,138.965 L69.3333,106.965 L69.3333,170.667 C69.3333,171.771 70.2293,172.667 71.3333,172.667 L184.667,172.667 C185.771,172.667 186.667,171.771 186.667,170.667 L186.667,106.965 Z M184.667,83.3333 L71.3333,83.3333 C70.2293,83.3333 69.3333,84.2293 69.3333,85.3333 L69.3333,91.7013 L128,127.035 L186.667,91.7013 L186.667,85.3333 C186.667,84.2293 185.771,83.3333 184.667,83.3333 Z" fill="url(#gradient)" fill-rule="nonzero"></path>
    </g>
</svg>
